<svg width="20" height="20" viewBox="0 0 20 20" fill="none" xmlns="http://www.w3.org/2000/svg">
<mask id="mask0_4231_1150" style="mask-type:luminance" maskUnits="userSpaceOnUse" x="0" y="0" width="20" height="20">
<path d="M20 0H0V20H20V0Z" fill="white"/>
</mask>
<g mask="url(#mask0_4231_1150)">
<path d="M6.66699 4.79175C6.32533 4.79175 6.04199 4.50841 6.04199 4.16675V1.66675C6.04199 1.32508 6.32533 1.04175 6.66699 1.04175C7.00866 1.04175 7.29199 1.32508 7.29199 1.66675V4.16675C7.29199 4.50841 7.00866 4.79175 6.66699 4.79175Z" fill="#999999"/>
<path d="M13.333 4.79175C12.9913 4.79175 12.708 4.50841 12.708 4.16675V1.66675C12.708 1.32508 12.9913 1.04175 13.333 1.04175C13.6747 1.04175 13.958 1.32508 13.958 1.66675V4.16675C13.958 4.50841 13.6747 4.79175 13.333 4.79175Z" fill="#999999"/>
<path d="M7.08333 12.0837C6.975 12.0837 6.86667 12.0587 6.76667 12.017C6.65833 11.9753 6.575 11.917 6.49167 11.842C6.34167 11.6837 6.25 11.4753 6.25 11.2503C6.25 11.142 6.275 11.0337 6.31667 10.9337C6.35833 10.8337 6.41667 10.742 6.49167 10.6587C6.575 10.5837 6.65833 10.5253 6.76667 10.4837C7.06667 10.3587 7.44167 10.4253 7.675 10.6587C7.825 10.817 7.91667 11.0337 7.91667 11.2503C7.91667 11.3003 7.90833 11.3587 7.9 11.417C7.89167 11.467 7.875 11.517 7.85 11.567C7.83333 11.617 7.80833 11.667 7.775 11.717C7.75 11.7587 7.70833 11.8003 7.675 11.842C7.51667 11.992 7.3 12.0837 7.08333 12.0837Z" fill="#999999"/>
<path d="M10.0003 12.0842C9.89199 12.0842 9.78366 12.0593 9.68366 12.0176C9.57533 11.9759 9.49199 11.9175 9.40866 11.8425C9.25866 11.6842 9.16699 11.4758 9.16699 11.2508C9.16699 11.1425 9.19199 11.0342 9.23366 10.9342C9.27533 10.8342 9.33366 10.7426 9.40866 10.6593C9.49199 10.5843 9.57533 10.5258 9.68366 10.4842C9.98366 10.3508 10.3587 10.4259 10.592 10.6593C10.742 10.8176 10.8337 11.0342 10.8337 11.2508C10.8337 11.3008 10.8253 11.3593 10.817 11.4176C10.8087 11.4676 10.792 11.5176 10.767 11.5676C10.7503 11.6176 10.7253 11.6675 10.692 11.7175C10.667 11.7592 10.6253 11.8008 10.592 11.8425C10.4337 11.9925 10.217 12.0842 10.0003 12.0842Z" fill="#999999"/>
<path d="M12.9163 12.0842C12.808 12.0842 12.6997 12.0593 12.5997 12.0176C12.4913 11.9759 12.408 11.9175 12.3247 11.8425C12.2913 11.8008 12.258 11.7592 12.2247 11.7175C12.1913 11.6675 12.1663 11.6176 12.1497 11.5676C12.1247 11.5176 12.108 11.4676 12.0997 11.4176C12.0913 11.3593 12.083 11.3008 12.083 11.2508C12.083 11.0342 12.1747 10.8176 12.3247 10.6593C12.408 10.5843 12.4913 10.5258 12.5997 10.4842C12.908 10.3508 13.2747 10.4259 13.508 10.6593C13.658 10.8176 13.7497 11.0342 13.7497 11.2508C13.7497 11.3008 13.7413 11.3593 13.733 11.4176C13.7247 11.4676 13.708 11.5176 13.683 11.5676C13.6663 11.6176 13.6413 11.6675 13.608 11.7175C13.583 11.7592 13.5413 11.8008 13.508 11.8425C13.3497 11.9925 13.133 12.0842 12.9163 12.0842Z" fill="#999999"/>
<path d="M7.08333 14.9995C6.975 14.9995 6.86667 14.9745 6.76667 14.9328C6.66667 14.8912 6.575 14.8328 6.49167 14.7578C6.34167 14.5995 6.25 14.3828 6.25 14.1662C6.25 14.0578 6.275 13.9495 6.31667 13.8495C6.35833 13.7412 6.41667 13.6495 6.49167 13.5745C6.8 13.2662 7.36667 13.2662 7.675 13.5745C7.825 13.7328 7.91667 13.9495 7.91667 14.1662C7.91667 14.3828 7.825 14.5995 7.675 14.7578C7.51667 14.9078 7.3 14.9995 7.08333 14.9995Z" fill="#999999"/>
<path d="M10.0003 14.9995C9.78366 14.9995 9.56699 14.9078 9.40866 14.7578C9.25866 14.5995 9.16699 14.3828 9.16699 14.1662C9.16699 14.0578 9.19199 13.9495 9.23366 13.8495C9.27533 13.7412 9.33366 13.6495 9.40866 13.5745C9.71699 13.2662 10.2837 13.2662 10.592 13.5745C10.667 13.6495 10.7253 13.7412 10.767 13.8495C10.8087 13.9495 10.8337 14.0578 10.8337 14.1662C10.8337 14.3828 10.742 14.5995 10.592 14.7578C10.4337 14.9078 10.217 14.9995 10.0003 14.9995Z" fill="#999999"/>
<path d="M12.9163 15.0009C12.6997 15.0009 12.483 14.9092 12.3247 14.7592C12.2497 14.6842 12.1913 14.5926 12.1497 14.4842C12.108 14.3842 12.083 14.2759 12.083 14.1676C12.083 14.0592 12.108 13.9509 12.1497 13.8509C12.1913 13.7426 12.2497 13.6509 12.3247 13.5759C12.5163 13.3842 12.808 13.2926 13.0747 13.3509C13.133 13.3592 13.183 13.3759 13.233 13.4009C13.283 13.4176 13.333 13.4426 13.383 13.4759C13.4247 13.5009 13.4663 13.5426 13.508 13.5759C13.658 13.7342 13.7497 13.9509 13.7497 14.1676C13.7497 14.3842 13.658 14.6009 13.508 14.7592C13.3497 14.9092 13.133 15.0009 12.9163 15.0009Z" fill="#999999"/>
<path d="M17.0837 8.19995H2.91699C2.57533 8.19995 2.29199 7.91662 2.29199 7.57495C2.29199 7.23328 2.57533 6.94995 2.91699 6.94995H17.0837C17.4253 6.94995 17.7087 7.23328 17.7087 7.57495C17.7087 7.91662 17.4253 8.19995 17.0837 8.19995Z" fill="#999999"/>
<path d="M13.3333 18.9584H6.66667C3.625 18.9584 1.875 17.2084 1.875 14.1667V7.08341C1.875 4.04175 3.625 2.29175 6.66667 2.29175H13.3333C16.375 2.29175 18.125 4.04175 18.125 7.08341V14.1667C18.125 17.2084 16.375 18.9584 13.3333 18.9584ZM6.66667 3.54175C4.28333 3.54175 3.125 4.70008 3.125 7.08341V14.1667C3.125 16.5501 4.28333 17.7084 6.66667 17.7084H13.3333C15.7167 17.7084 16.875 16.5501 16.875 14.1667V7.08341C16.875 4.70008 15.7167 3.54175 13.3333 3.54175H6.66667Z" fill="#999999"/>
</g>
</svg>
