<svg width="71" height="70" viewBox="0 0 71 70" fill="none" xmlns="http://www.w3.org/2000/svg">
<rect x="0.5" width="70" height="70" rx="35" fill="#2475FC" fill-opacity="0.1"/>
<g clip-path="url(#clip0_4249_1138)">
<path d="M31 41L35.8 36.2C36.4 35.6 37.3 35.6 37.9 36.2L43 41M37 48.5V36.5M43 48.5C48.1 48.2 52 44 52 38.9C52 33.5 47.5 29 42.1 29H41.2C40.3 24.8 36.4 21.5 31.9 21.5C26.5 21.5 22 26 22 31.4C22 32.6 22.3 33.8 22.6 34.7C20.5 35.9 19 38.3 19 41C19 45.2 22.3 48.5 26.5 48.5H31" stroke="#2475FC" stroke-width="3" stroke-linecap="round"/>
</g>
<defs>
<clipPath id="clip0_4249_1138">
<rect width="36" height="36" fill="white" transform="translate(17.5 17)"/>
</clipPath>
</defs>
</svg>
