<svg width="12" height="12" viewBox="0 0 12 12" fill="none" xmlns="http://www.w3.org/2000/svg">
<mask id="mask0_4220_4599" style="mask-type:luminance" maskUnits="userSpaceOnUse" x="0" y="0" width="12" height="12">
<path d="M12 0H0V12H12V0Z" fill="white"/>
</mask>
<g mask="url(#mask0_4220_4599)">
<path d="M10.5 11H1.5C1.295 11 1.125 10.83 1.125 10.625C1.125 10.42 1.295 10.25 1.5 10.25H10.5C10.705 10.25 10.875 10.42 10.875 10.625C10.875 10.83 10.705 11 10.5 11Z" fill="white"/>
<path d="M9.5093 1.73983C8.5393 0.769834 7.5893 0.744834 6.5943 1.73983L5.9893 2.34483C5.9393 2.39483 5.9193 2.47483 5.9393 2.54483C6.3193 3.86983 7.37931 4.92983 8.70431 5.30985C8.72431 5.31485 8.7443 5.31985 8.7643 5.31985C8.8193 5.31985 8.86931 5.29985 8.90931 5.25985L9.5093 4.65483C10.0043 4.16483 10.2443 3.68983 10.2443 3.20983C10.2493 2.71483 10.0093 2.23483 9.5093 1.73983Z" fill="white"/>
<path d="M7.80517 5.76532C7.66017 5.69532 7.52017 5.62532 7.38517 5.54532C7.27517 5.48032 7.17017 5.41032 7.06517 5.33532C6.98017 5.28032 6.88017 5.20032 6.78517 5.12032C6.77517 5.11532 6.74017 5.08532 6.70017 5.04532C6.53517 4.90531 6.35017 4.72531 6.18517 4.52531C6.17017 4.51531 6.14517 4.48031 6.11017 4.43531C6.06017 4.37531 5.97517 4.27531 5.90017 4.16031C5.84017 4.08531 5.77017 3.97531 5.70517 3.86531C5.62517 3.73031 5.55517 3.59531 5.48517 3.45531C5.47457 3.43261 5.46432 3.41003 5.45437 3.38758C5.38057 3.22092 5.16327 3.17219 5.03437 3.30107L2.17016 6.16532C2.10516 6.23032 2.04516 6.35532 2.03016 6.44032L1.76016 8.35532C1.71016 8.69532 1.80516 9.01532 2.01516 9.23032C2.19516 9.40532 2.44516 9.50032 2.71516 9.50032C2.77516 9.50032 2.83516 9.49532 2.89516 9.48532L4.81516 9.21532C4.90516 9.20032 5.03017 9.14032 5.09017 9.07532L7.95082 6.21467C8.08057 6.08487 8.03162 5.86217 7.86282 5.79012C7.84382 5.78202 7.82462 5.77372 7.80517 5.76532Z" fill="white"/>
</g>
</svg>
