<svg width="24" height="25" viewBox="0 0 24 25" fill="none" xmlns="http://www.w3.org/2000/svg">
<mask id="mask0_4167_623" style="mask-type:luminance" maskUnits="userSpaceOnUse" x="0" y="0" width="24" height="25">
<path d="M0 0.5L0 24.5H24V0.5H0Z" fill="white"/>
</mask>
<g mask="url(#mask0_4167_623)">
<path d="M7.25 2.5V8.5C7.25 8.91 6.91 9.25 6.5 9.25C6.09 9.25 5.75 8.91 5.75 8.5V2.5C5.75 2.09 6.09 1.75 6.5 1.75C6.91 1.75 7.25 2.09 7.25 2.5Z" fill="black"/>
<path d="M7.25 18.5V22.5C7.25 22.91 6.91 23.25 6.5 23.25C6.09 23.25 5.75 22.91 5.75 22.5V18.5C5.75 18.09 6.09 17.75 6.5 17.75C6.91 17.75 7.25 18.09 7.25 18.5Z" fill="black"/>
<path d="M10.75 14.5C10.75 16.84 8.84 18.75 6.5 18.75C4.16 18.75 2.25 16.84 2.25 14.5C2.25 12.16 4.16 10.25 6.5 10.25C8.84 10.25 10.75 12.16 10.75 14.5ZM3.75 14.5C3.75 16.02 4.98 17.25 6.5 17.25C8.02 17.25 9.25 16.02 9.25 14.5C9.25 12.98 8.02 11.75 6.5 11.75C4.98 11.75 3.75 12.98 3.75 14.5Z" fill="black"/>
<path d="M18.25 2.5V6.5C18.25 6.91 17.91 7.25 17.5 7.25C17.09 7.25 16.75 6.91 16.75 6.5V2.5C16.75 2.09 17.09 1.75 17.5 1.75C17.91 1.75 18.25 2.09 18.25 2.5Z" fill="black"/>
<path d="M18.25 16.5V22.5C18.25 22.91 17.91 23.25 17.5 23.25C17.09 23.25 16.75 22.91 16.75 22.5V16.5C16.75 16.09 17.09 15.75 17.5 15.75C17.91 15.75 18.25 16.09 18.25 16.5Z" fill="black"/>
<path d="M21.75 10.5C21.75 12.84 19.84 14.75 17.5 14.75C15.16 14.75 13.25 12.84 13.25 10.5C13.25 8.16 15.16 6.25 17.5 6.25C19.84 6.25 21.75 8.16 21.75 10.5ZM14.75 10.5C14.75 12.02 15.98 13.25 17.5 13.25C19.02 13.25 20.25 12.02 20.25 10.5C20.25 8.98 19.02 7.75 17.5 7.75C15.98 7.75 14.75 8.98 14.75 10.5Z" fill="black"/>
</g>
</svg>
