<svg width="24" height="24" viewBox="0 0 24 24" fill="none" xmlns="http://www.w3.org/2000/svg">
<path d="M13.3836 12.2792C13.2157 12.2792 13.0478 12.2174 12.9153 12.0848C12.659 11.8285 12.659 11.4044 12.9153 11.1481L20.1618 3.9016C20.4181 3.64532 20.8422 3.64532 21.0985 3.9016C21.3548 4.15788 21.3548 4.58206 21.0985 4.83834L13.852 12.0848C13.7194 12.2174 13.5515 12.2792 13.3836 12.2792Z" fill="black"/>
<path d="M21.3372 8.56744C20.9749 8.56744 20.6744 8.26698 20.6744 7.90465V4.32558H17.0953C16.733 4.32558 16.4326 4.02512 16.4326 3.66279C16.4326 3.30047 16.733 3 17.0953 3H21.3372C21.6995 3 22 3.30047 22 3.66279V7.90465C22 8.26698 21.6995 8.56744 21.3372 8.56744Z" fill="black"/>
<path d="M15.1512 22H9.84884C5.05023 22 3 19.9498 3 15.1512V9.84884C3 5.05023 5.05023 3 9.84884 3H11.6163C11.9786 3 12.2791 3.30047 12.2791 3.66279C12.2791 4.02512 11.9786 4.32558 11.6163 4.32558H9.84884C5.77488 4.32558 4.32558 5.77488 4.32558 9.84884V15.1512C4.32558 19.2251 5.77488 20.6744 9.84884 20.6744H15.1512C19.2251 20.6744 20.6744 19.2251 20.6744 15.1512V13.3837C20.6744 13.0214 20.9749 12.7209 21.3372 12.7209C21.6995 12.7209 22 13.0214 22 13.3837V15.1512C22 19.9498 19.9498 22 15.1512 22Z" fill="black"/>
</svg>
