<svg width="24" height="24" viewBox="0 0 24 24" fill="none" xmlns="http://www.w3.org/2000/svg">
<mask id="mask0_4217_4277" style="mask-type:luminance" maskUnits="userSpaceOnUse" x="0" y="0" width="24" height="24">
<path d="M24 0H0V24H24V0Z" fill="white"/>
</mask>
<g mask="url(#mask0_4217_4277)">
<path d="M12.0206 2.91016C8.71058 2.91016 6.02058 5.60016 6.02058 8.91016V11.8002C6.02058 12.4102 5.76058 13.3402 5.45058 13.8602L4.30058 15.7702C3.59058 16.9502 4.08058 18.2602 5.38058 18.7002C9.69058 20.1402 14.3406 20.1402 18.6506 18.7002C19.8606 18.3002 20.3906 16.8702 19.7306 15.7702L18.5806 13.8602C18.2806 13.3402 18.0206 12.4102 18.0206 11.8002V8.91016C18.0206 5.61016 15.3206 2.91016 12.0206 2.91016Z" stroke="black" stroke-width="1.5" stroke-miterlimit="10" stroke-linecap="round"/>
<path d="M13.8699 3.19945C13.5599 3.10945 13.2399 3.03945 12.9099 2.99945C11.9499 2.87945 11.0299 2.94945 10.1699 3.19945C10.4599 2.45945 11.1799 1.93945 12.0199 1.93945C12.8599 1.93945 13.5799 2.45945 13.8699 3.19945Z" stroke="black" stroke-width="1.5" stroke-miterlimit="10" stroke-linecap="round" stroke-linejoin="round"/>
<path d="M15.0205 20.0605C15.0205 21.7105 13.6705 23.0605 12.0205 23.0605C11.2005 23.0605 10.4405 22.7205 9.90051 22.1805C9.36051 21.6405 9.02051 20.8805 9.02051 20.0605" stroke="black" stroke-width="1.5" stroke-miterlimit="10"/>
</g>
</svg>
