<svg width="19" height="18" viewBox="0 0 19 18" fill="none" xmlns="http://www.w3.org/2000/svg">
<path d="M11.9454 16.6877H7.05535C3.37285 16.6877 1.79785 15.1127 1.79785 11.4302V11.3327C1.79785 8.00273 3.11035 6.3977 6.05035 6.1202C6.35035 6.0977 6.63535 6.3227 6.66535 6.6302C6.69535 6.9377 6.47035 7.2152 6.15535 7.2452C3.80035 7.4627 2.92285 8.57273 2.92285 11.3402V11.4377C2.92285 14.4902 4.00285 15.5702 7.05535 15.5702H11.9454C14.9979 15.5702 16.0779 14.4902 16.0779 11.4377V11.3402C16.0779 8.55773 15.1854 7.4477 12.7854 7.2452C12.4779 7.2152 12.2454 6.9452 12.2754 6.6377C12.3054 6.3302 12.5679 6.0977 12.8829 6.1277C15.8679 6.3827 17.2029 7.99522 17.2029 11.3477V11.4452C17.2029 15.1127 15.6279 16.6877 11.9454 16.6877Z" fill="white"/>
<path d="M9.5 11.8126C9.1925 11.8126 8.9375 11.5576 8.9375 11.2501V2.71509C8.9375 2.40759 9.1925 2.15259 9.5 2.15259C9.8075 2.15259 10.0625 2.40759 10.0625 2.71509V11.2501C10.0625 11.5576 9.8075 11.8126 9.5 11.8126Z" fill="white"/>
<path d="M12.0124 4.95032C11.8699 4.95032 11.7274 4.89782 11.6149 4.78532L9.49989 2.67032L7.38488 4.78532C7.16738 5.00282 6.80738 5.00282 6.58988 4.78532C6.37238 4.56782 6.37238 4.20782 6.58988 3.99032L9.10239 1.47782C9.31989 1.26032 9.67989 1.26032 9.89739 1.47782L12.4099 3.99032C12.6274 4.20782 12.6274 4.56782 12.4099 4.78532C12.3049 4.89782 12.1549 4.95032 12.0124 4.95032Z" fill="white"/>
</svg>
